<svg width="37" height="64" viewBox="0 0 37 64" fill="none" xmlns="http://www.w3.org/2000/svg">
<path d="M1.59999 1.96667C1.98704 1.57864 2.44683 1.27078 2.95304 1.06073C3.45925 0.850677 4.00193 0.742554 4.54999 0.742554C5.09805 0.742554 5.64073 0.850677 6.14694 1.06073C6.65315 1.27078 7.11294 1.57864 7.49999 1.96667L35.2 29.6667C35.509 29.975 35.7542 30.3413 35.9214 30.7446C36.0887 31.1478 36.1748 31.5801 36.1748 32.0167C36.1748 32.4532 36.0887 32.8855 35.9214 33.2887C35.7542 33.692 35.509 34.0583 35.2 34.3667L7.49999 62.0667C5.86666 63.7 3.23332 63.7 1.59999 62.0667C-0.0333448 60.4333 -0.0333448 57.8 1.59999 56.1667L25.7333 32L1.56666 7.83334C-0.0333392 6.23334 -0.0333448 3.56667 1.59999 1.96667Z" fill="#007bff"/>
</svg>
